<svg width="124" height="150" viewBox="0 0 124 150" fill="none" xmlns="http://www.w3.org/2000/svg">
<g clip-path="url(#clip0_112_2)">
<path d="M116.766 98.3516C73.7144 102.857 70.151 106.508 65.7558 150.614C61.358 106.508 57.7946 102.857 14.7451 98.3516C57.7972 93.8461 61.3605 90.1955 65.7558 46.0917C70.151 90.1981 73.7169 93.8487 116.766 98.3516ZM87.9019 -0.787109C84.8914 29.4261 82.449 31.9257 52.9556 35.0151C82.449 38.1019 84.8889 40.6014 87.9019 70.8172C90.9149 40.604 93.3572 38.1045 122.848 35.0151C93.3572 31.9283 90.9149 29.4287 87.9019 -0.787109ZM29.1279 23.5331C26.6805 48.0768 24.6972 50.1087 0.740234 52.6161C24.6972 55.1234 26.6805 57.1553 29.1279 81.699C31.5754 57.1553 33.5587 55.1234 57.5156 52.6161C33.5587 50.1113 31.5754 48.0794 29.1279 23.5331Z" fill="#F4ADCD"/>
</g>
<defs>
<clipPath id="clip0_112_2">
<rect width="123.592" height="150" fill="white"/>
</clipPath>
</defs>
</svg>
