<svg width="156" height="150" viewBox="0 0 156 150" fill="none" xmlns="http://www.w3.org/2000/svg">
<path d="M107.45 64.7422H48.8184C52.4682 68.1773 54.6168 72.6863 56.1204 76.1214H62.5639L65.1418 102.313C65.1418 105.103 67.2904 107.466 70.0817 107.893C72.6596 108.107 75.2375 108.322 77.813 108.322C80.3886 108.322 83.1822 108.109 85.7601 107.893C88.5514 107.68 90.7 105.103 90.7 102.313L93.0621 76.1214H99.9349C101.436 72.6863 103.798 68.1773 107.45 64.7422Z" fill="#0FA652"/>
<path d="M78.0278 61.7369C85.4992 61.7369 91.5575 55.6831 91.5575 48.2122C91.5575 40.7412 85.4992 34.6875 78.0278 34.6875C70.5564 34.6875 64.498 40.7436 64.498 48.2122C64.4957 55.6808 70.5541 61.7369 78.0278 61.7369Z" fill="#0FA652"/>
<path d="M53.7592 83.6355C53.5457 82.9907 53.3299 82.3482 52.9006 81.4877C50.752 75.6914 46.6729 64.957 36.793 64.957H21.3305C11.2371 64.957 7.37147 75.6914 5.22286 81.4877C5.00939 82.3459 4.57782 82.9907 4.36435 83.6355C3.07657 86.6415 1.57301 92.6535 0.498704 97.3759C-0.146342 100.166 1.35722 102.743 3.93509 103.817H4.14855C7.36915 105.104 11.0213 103.172 11.8798 99.7371C12.9541 95.0147 14.2419 89.8609 15.1004 87.9288C15.3139 87.284 15.7455 86.4258 15.9589 85.5676L16.3882 102.527C16.3882 105.318 18.5368 107.681 21.3281 108.108C23.906 108.321 26.4839 108.537 29.0594 108.537C31.6373 108.537 34.4286 108.324 36.7907 108.108C39.5821 107.895 41.7307 105.318 41.7307 102.527L42.1599 85.5676C42.3734 86.4258 42.805 87.2863 43.0184 87.9288C43.877 90.0766 45.167 95.0124 46.239 99.7371C47.0975 103.172 50.7497 105.104 53.9703 103.817H54.1838C56.7616 102.743 58.2652 99.9528 57.6202 97.3759C56.5505 92.4378 55.0469 86.6415 53.7592 83.6355Z" fill="#0FA652"/>
<path d="M29.059 61.7369C36.5304 61.7369 42.5888 55.6831 42.5888 48.2122C42.5888 40.7412 36.5304 34.6875 29.059 34.6875C21.5876 34.6875 15.5293 40.7436 15.5293 48.2122C15.5293 55.6808 21.5876 61.7369 29.059 61.7369Z" fill="#0FA652"/>
<path d="M155.558 97.3782C154.486 92.4401 152.983 86.6415 151.693 83.6355C151.479 82.9907 151.263 82.3482 150.834 81.4877C148.686 75.6914 144.607 64.957 134.727 64.957H134.297L119.693 64.9593H119.264C109.171 64.9593 105.305 75.6937 103.156 81.49C102.943 82.3482 102.511 82.993 102.298 83.6378C101.01 86.6438 99.5066 92.6558 98.4323 97.3782C97.7873 100.169 99.2908 102.745 101.869 103.819H102.082C105.303 105.107 108.955 103.175 109.813 99.7394C110.888 95.017 112.176 89.8632 113.034 87.9311C113.247 87.2863 113.679 86.4281 113.893 85.5699L114.322 102.53C114.322 105.32 116.47 107.684 119.262 108.11C121.84 108.324 124.417 108.539 126.993 108.539C129.571 108.539 132.362 108.326 134.724 108.11C137.516 107.897 139.664 105.32 139.664 102.53L140.094 85.5699C140.307 86.4281 140.739 87.2886 140.952 87.9311C141.811 90.0789 143.101 95.0147 144.173 99.7394C145.031 103.175 148.683 105.107 151.904 103.819H152.117C154.698 102.745 156.203 99.9551 155.558 97.3782Z" fill="#0FA652"/>
<path d="M126.995 61.7369C134.466 61.7369 140.524 55.6831 140.524 48.2122C140.524 40.7412 134.466 34.6875 126.995 34.6875C119.523 34.6875 113.465 40.7436 113.465 48.2122C113.463 55.6808 119.521 61.7369 126.995 61.7369Z" fill="#0FA652"/>
</svg>
