<svg width="156" height="75" viewBox="0 0 156 75" fill="none" xmlns="http://www.w3.org/2000/svg">
<path d="M107.45 30.7422H48.8184C52.4682 34.1773 54.6168 38.6863 56.1204 42.1214H62.5639L65.1418 68.313C65.1418 71.103 67.2904 73.466 70.0817 73.893C72.6596 74.107 75.2375 74.322 77.813 74.322C80.3886 74.322 83.1822 74.109 85.7601 73.893C88.5514 73.68 90.7 71.103 90.7 68.313L93.0621 42.1214H99.9349C101.436 38.6863 103.798 34.1773 107.45 30.7422Z" fill="#0FA652"/>
<path d="M78.0278 27.7369C85.4992 27.7369 91.5575 21.6831 91.5575 14.2122C91.5575 6.7412 85.4992 0.6875 78.0278 0.6875C70.5564 0.6875 64.498 6.7436 64.498 14.2122C64.4957 21.6808 70.5541 27.7369 78.0278 27.7369Z" fill="#0FA652"/>
<path d="M53.7592 49.6355C53.5457 48.9907 53.3299 48.3482 52.9006 47.4877C50.752 41.6914 46.6729 30.957 36.793 30.957H21.3305C11.2371 30.957 7.37147 41.6914 5.22286 47.4877C5.00939 48.3459 4.57782 48.9907 4.36435 49.6355C3.07657 52.6415 1.57301 58.6535 0.498704 63.3759C-0.146342 66.166 1.35722 68.743 3.93509 69.817H4.14855C7.36915 71.104 11.0213 69.172 11.8798 65.7371C12.9541 61.0147 14.2419 55.8609 15.1004 53.9288C15.3139 53.284 15.7455 52.4258 15.9589 51.5676L16.3882 68.527C16.3882 71.318 18.5368 73.681 21.3281 74.108C23.906 74.321 26.4839 74.537 29.0594 74.537C31.6373 74.537 34.4286 74.324 36.7907 74.108C39.5821 73.895 41.7307 71.318 41.7307 68.527L42.1599 51.5676C42.3734 52.4258 42.805 53.2863 43.0184 53.9288C43.877 56.0766 45.167 61.0124 46.239 65.7371C47.0975 69.172 50.7497 71.104 53.9703 69.817H54.1838C56.7616 68.743 58.2652 65.9528 57.6202 63.3759C56.5505 58.4378 55.0469 52.6415 53.7592 49.6355Z" fill="#0FA652"/>
<path d="M29.059 27.7369C36.5304 27.7369 42.5888 21.6831 42.5888 14.2122C42.5888 6.7412 36.5304 0.6875 29.059 0.6875C21.5876 0.6875 15.5293 6.7436 15.5293 14.2122C15.5293 21.6808 21.5876 27.7369 29.059 27.7369Z" fill="#0FA652"/>
<path d="M155.558 63.3782C154.486 58.4401 152.983 52.6415 151.693 49.6355C151.479 48.9907 151.263 48.3482 150.834 47.4877C148.686 41.6914 144.607 30.957 134.727 30.957H134.297L119.693 30.9593H119.264C109.171 30.9593 105.305 41.6937 103.156 47.49C102.943 48.3482 102.511 48.993 102.298 49.6378C101.01 52.6438 99.5066 58.6558 98.4323 63.3782C97.7873 66.169 99.2908 68.745 101.869 69.819H102.082C105.303 71.107 108.955 69.175 109.813 65.7394C110.888 61.017 112.176 55.8632 113.034 53.9311C113.247 53.2863 113.679 52.4281 113.893 51.5699L114.322 68.53C114.322 71.32 116.47 73.684 119.262 74.11C121.84 74.324 124.417 74.539 126.993 74.539C129.571 74.539 132.362 74.326 134.724 74.11C137.516 73.897 139.664 71.32 139.664 68.53L140.094 51.5699C140.307 52.4281 140.739 53.2886 140.952 53.9311C141.811 56.0789 143.101 61.0147 144.173 65.7394C145.031 69.175 148.683 71.107 151.904 69.819H152.117C154.698 68.745 156.203 65.9551 155.558 63.3782Z" fill="#0FA652"/>
<path d="M126.995 27.7369C134.466 27.7369 140.524 21.6831 140.524 14.2122C140.524 6.7412 134.466 0.6875 126.995 0.6875C119.523 0.6875 113.465 6.7436 113.465 14.2122C113.463 21.6808 119.521 27.7369 126.995 27.7369Z" fill="#0FA652"/>
</svg>
