<svg width="84" height="170" viewBox="0 0 84 170" fill="none" xmlns="http://www.w3.org/2000/svg">
<g clip-path="url(#clip0_112_38)">
<path d="M83.8653 143.496C82.2905 136.243 80.084 127.727 78.1918 123.312C77.8774 122.366 77.56 121.42 76.9314 120.159C73.7788 111.645 67.791 95.8789 53.2884 95.8789H52.6566L31.2202 95.882H30.5884C15.7715 95.882 10.098 111.649 6.94543 120.162C6.63109 121.423 5.99935 122.369 5.685 123.316C3.79283 127.73 1.58633 136.558 0.011551 143.496C-0.934535 147.596 1.27197 151.378 5.05631 152.956H5.37067C10.098 154.849 15.4602 152.01 16.7206 146.964C18.2985 140.025 20.1876 132.458 21.448 129.619C21.7624 128.673 22.3941 127.412 22.7084 126.151L23.3402 151.06C23.3402 155.16 26.4928 158.628 30.5915 159.26C34.3728 159.574 38.1571 159.892 41.9415 159.892C45.7258 159.892 49.8214 159.577 53.2914 159.26C57.3901 158.945 60.5427 155.16 60.5427 151.06L61.1744 126.151C61.4888 127.412 62.1205 128.673 62.4349 129.619C63.6953 132.772 65.5875 140.025 67.1623 146.964C68.4227 152.01 73.7849 154.846 78.5122 152.956H78.8266C82.6018 151.378 84.8113 147.281 83.8653 143.496Z" fill="#986EAD"/>
<path d="M41.8447 91.1458C52.862 91.1458 61.7949 82.2109 61.7949 71.1911C61.7949 60.1712 52.862 51.2363 41.8447 51.2363C30.8274 51.2363 21.8945 60.1712 21.8945 71.1911C21.8945 82.214 30.8244 91.1458 41.8447 91.1458Z" fill="#986EAD"/>
<path d="M41.798 37.0547C44.978 37.0547 47.7034 34.3288 47.7034 31.148V15.6958C47.7034 12.515 44.978 9.78906 41.798 9.78906C38.6179 9.78906 35.8926 12.515 35.8926 15.6958V31.148C35.8926 34.3288 38.6179 37.0547 41.798 37.0547Z" fill="#986EAD"/>
<path d="M63.153 42.7364C64.0625 43.1913 65.1978 43.6431 66.1072 43.6431C68.152 43.6431 70.1968 42.5075 71.3321 40.6882L79.0564 27.2812C80.6464 24.5552 79.737 20.9196 76.7827 19.1003C74.0574 17.5099 70.4226 18.4195 68.6037 21.3744L60.8793 34.7814C59.2923 37.5104 60.2018 41.1491 63.153 42.7364Z" fill="#986EAD"/>
<path d="M12.4902 40.6941C13.6255 42.5135 15.6702 43.649 17.715 43.649C18.6244 43.649 19.7597 43.4232 20.6692 42.7394C23.3945 41.149 24.5298 37.5134 22.9429 34.5584L15.2185 21.1515C13.6285 18.4255 9.9937 17.29 7.03947 18.8773C4.31413 20.4677 3.17885 24.1033 4.76583 27.0582L12.4902 40.6941Z" fill="#986EAD"/>
</g>
<defs>
<clipPath id="clip0_112_38">
<rect width="84" height="170" fill="white"/>
</clipPath>
</defs>
</svg>
