<?xml version="1.0" encoding="utf-8"?>
<!-- Generator: Adobe Illustrator 24.2.3, SVG Export Plug-In . SVG Version: 6.00 Build 0)  -->
<svg version="1.1" id="Layer_1" xmlns="http://www.w3.org/2000/svg" xmlns:xlink="http://www.w3.org/1999/xlink" x="0px" y="0px"
	 viewBox="0 0 410.98 131.78" style="enable-background:new 0 0 410.98 131.78;" xml:space="preserve">
<style type="text/css">
	.st0{fill:#302C38;}
	.st1{fill:#00A652;}
	.st2{fill:#FEACD5;}
	.st3{opacity:0.6;fill:#D800BF;}
	.st4{opacity:0.6;fill:#CA4100;}
	.st5{opacity:0.6;fill:#610093;}
	.st6{fill:#A36DC6;}
</style>
<g>
	<path class="st0" d="M125.21,52.42c1.75,0,3.19,0.28,4.33,0.85c1.13,0.57,2,1.18,2.6,1.83c0.6,0.65,0.97,1.1,1.11,1.34h0.41v-2.36
		c0-0.63,0.51-1.15,1.15-1.15h5.54c0.63,0,1.15,0.51,1.15,1.15v25.03c0,0.63-0.51,1.15-1.15,1.15h-5.54c-0.63,0-1.15-0.51-1.15-1.15
		v-2.36h-0.41c-0.14,0.24-0.51,0.69-1.11,1.34c-0.6,0.65-1.47,1.26-2.6,1.83c-1.13,0.57-2.58,0.85-4.33,0.85
		c-2.03,0-3.79-0.4-5.29-1.21c-1.49-0.81-2.74-1.89-3.73-3.25c-1-1.36-1.75-2.88-2.24-4.56c-0.5-1.68-0.75-3.4-0.75-5.15
		c0-1.75,0.25-3.47,0.75-5.16c0.5-1.68,1.25-3.2,2.24-4.56c1-1.36,2.24-2.44,3.73-3.25C121.43,52.82,123.19,52.42,125.21,52.42z
		 M127.48,58.76c-1.41,0-2.59,0.39-3.53,1.16c-0.95,0.78-1.65,1.76-2.11,2.96c-0.47,1.2-0.7,2.44-0.7,3.71s0.23,2.51,0.7,3.71
		c0.46,1.2,1.17,2.19,2.11,2.96c0.94,0.77,2.12,1.16,3.53,1.16s2.59-0.39,3.53-1.16c0.95-0.77,1.65-1.76,2.11-2.96
		c0.47-1.2,0.7-2.44,0.7-3.71s-0.23-2.51-0.7-3.71c-0.46-1.2-1.17-2.19-2.11-2.96C130.07,59.14,128.89,58.76,127.48,58.76z"/>
	<path class="st0" d="M158.56,80.77c-2.41,0-4.5-0.4-6.29-1.21c-1.79-0.81-3.27-1.88-4.43-3.22c-1.17-1.34-2.05-2.86-2.63-4.56
		c-0.58-1.7-0.88-3.43-0.88-5.18c0-1.75,0.29-3.47,0.88-5.16c0.58-1.68,1.46-3.2,2.63-4.56c1.17-1.36,2.65-2.44,4.43-3.25
		c1.79-0.8,3.88-1.21,6.29-1.21c2.44,0,4.45,0.35,6.03,1.06c1.58,0.7,2.84,1.58,3.79,2.63c0.95,1.05,1.64,2.1,2.09,3.15
		c0.29,0.68,0.53,1.43,0.74,2.25c0.18,0.72-0.37,1.43-1.12,1.43h-5.07c-0.48,0-0.91-0.3-1.07-0.74c-0.19-0.54-0.41-1-0.67-1.4
		c-0.36-0.57-0.9-1.06-1.62-1.49c-0.72-0.43-1.68-0.64-2.89-0.64c-1.48,0-2.71,0.37-3.69,1.11c-0.98,0.74-1.71,1.71-2.19,2.91
		c-0.48,1.2-0.72,2.51-0.72,3.92c0,1.41,0.24,2.71,0.72,3.92c0.48,1.2,1.21,2.17,2.19,2.91c0.98,0.74,2.21,1.11,3.69,1.11
		c1.2,0,2.16-0.22,2.89-0.64c0.72-0.43,1.26-0.93,1.62-1.5c0.25-0.39,0.47-0.86,0.67-1.4c0.16-0.45,0.59-0.74,1.07-0.74h5.07
		c0.75,0,1.29,0.71,1.12,1.43c-0.2,0.83-0.45,1.58-0.74,2.25c-0.45,1.05-1.14,2.1-2.09,3.15c-0.94,1.05-2.21,1.92-3.79,2.63
		C163.01,80.42,161,80.77,158.56,80.77z"/>
	<path class="st0" d="M187.59,80.77c-2.41,0-4.5-0.4-6.29-1.21c-1.79-0.81-3.27-1.88-4.43-3.22c-1.17-1.34-2.05-2.86-2.63-4.56
		c-0.58-1.7-0.88-3.43-0.88-5.18c0-1.75,0.29-3.47,0.88-5.16c0.58-1.68,1.46-3.2,2.63-4.56c1.17-1.36,2.65-2.44,4.43-3.25
		c1.79-0.8,3.88-1.21,6.29-1.21c2.44,0,4.45,0.35,6.03,1.06c1.58,0.7,2.84,1.58,3.79,2.63c0.95,1.05,1.64,2.1,2.09,3.15
		c0.29,0.68,0.53,1.43,0.74,2.25c0.18,0.72-0.37,1.43-1.12,1.43h-5.07c-0.48,0-0.91-0.3-1.07-0.74c-0.19-0.54-0.41-1-0.67-1.4
		c-0.36-0.57-0.9-1.06-1.62-1.49c-0.72-0.43-1.68-0.64-2.89-0.64c-1.48,0-2.71,0.37-3.69,1.11c-0.98,0.74-1.71,1.71-2.19,2.91
		c-0.48,1.2-0.72,2.51-0.72,3.92c0,1.41,0.24,2.71,0.72,3.92c0.48,1.2,1.21,2.17,2.19,2.91c0.98,0.74,2.21,1.11,3.69,1.11
		c1.2,0,2.16-0.22,2.89-0.64c0.72-0.43,1.26-0.93,1.62-1.5c0.25-0.39,0.47-0.86,0.67-1.4c0.16-0.45,0.59-0.74,1.07-0.74h5.07
		c0.75,0,1.29,0.71,1.12,1.43c-0.2,0.83-0.45,1.58-0.74,2.25c-0.45,1.05-1.14,2.1-2.09,3.15c-0.94,1.05-2.21,1.92-3.79,2.63
		C192.03,80.42,190.03,80.77,187.59,80.77z"/>
	<path class="st0" d="M216.35,80.77c-2.41,0-4.49-0.4-6.24-1.21c-1.75-0.81-3.19-1.89-4.33-3.25c-1.13-1.36-1.98-2.88-2.55-4.56
		c-0.57-1.68-0.85-3.42-0.85-5.21c0-1.72,0.27-3.41,0.8-5.08c0.53-1.67,1.36-3.19,2.47-4.56s2.54-2.46,4.28-3.27
		c1.74-0.8,3.79-1.21,6.16-1.21c2.51,0,4.73,0.55,6.67,1.65c1.94,1.1,3.46,2.72,4.56,4.87c1.1,2.15,1.65,4.75,1.65,7.81v0.76
		c0,0.63-0.51,1.15-1.15,1.15h-17.56c0.1,1.65,0.68,3.08,1.73,4.28c1.05,1.2,2.5,1.8,4.36,1.8c1.06,0,1.93-0.16,2.6-0.49
		c0.67-0.32,1.19-0.7,1.57-1.13c0.26-0.29,0.49-0.65,0.7-1.06c0.19-0.38,0.59-0.61,1.01-0.61h4.95c0.78,0,1.34,0.77,1.09,1.51
		c-0.22,0.65-0.47,1.25-0.75,1.79c-0.48,0.93-1.18,1.86-2.09,2.78c-0.91,0.93-2.11,1.7-3.58,2.32
		C220.39,80.46,218.55,80.77,216.35,80.77z M210.27,63.91h11.18c-0.1-1.89-0.67-3.3-1.7-4.23c-1.03-0.93-2.3-1.39-3.81-1.39
		c-1.51,0-2.8,0.49-3.87,1.47C211,60.74,210.4,62.12,210.27,63.91z"/>
	<path class="st0" d="M232.85,79.11V42.22c0-0.63,0.51-1.15,1.15-1.15h5.54c0.63,0,1.15,0.51,1.15,1.15v36.88
		c0,0.63-0.51,1.15-1.15,1.15h-5.54C233.36,80.25,232.85,79.74,232.85,79.11z"/>
	<path class="st0" d="M258.4,80.77c-2.41,0-4.49-0.4-6.24-1.21c-1.75-0.81-3.19-1.89-4.33-3.25s-1.98-2.88-2.55-4.56
		c-0.57-1.68-0.85-3.42-0.85-5.21c0-1.72,0.27-3.41,0.8-5.08s1.36-3.19,2.47-4.56s2.54-2.46,4.28-3.27c1.74-0.8,3.79-1.21,6.16-1.21
		c2.51,0,4.73,0.55,6.67,1.65c1.94,1.1,3.46,2.72,4.56,4.87c1.1,2.15,1.65,4.75,1.65,7.81v0.76c0,0.63-0.51,1.15-1.15,1.15h-17.56
		c0.1,1.65,0.68,3.08,1.73,4.28c1.05,1.2,2.5,1.8,4.36,1.8c1.06,0,1.93-0.16,2.6-0.49c0.67-0.32,1.19-0.7,1.57-1.13
		c0.26-0.29,0.49-0.65,0.7-1.06c0.19-0.38,0.59-0.61,1.01-0.61h4.95c0.78,0,1.34,0.77,1.09,1.51c-0.22,0.65-0.47,1.25-0.75,1.79
		c-0.48,0.93-1.18,1.86-2.09,2.78c-0.91,0.93-2.11,1.7-3.58,2.32C262.44,80.46,260.6,80.77,258.4,80.77z M252.32,63.91h11.18
		c-0.1-1.89-0.67-3.3-1.7-4.23c-1.03-0.93-2.3-1.39-3.81-1.39c-1.51,0-2.8,0.49-3.87,1.47C253.05,60.74,252.45,62.12,252.32,63.91z"
		/>
	<path class="st0" d="M274.25,79.11V54.08c0-0.63,0.51-1.15,1.15-1.15h5.49c0.63,0,1.15,0.51,1.15,1.15v2.82h0.26
		c0.31-0.72,0.74-1.43,1.29-2.11c0.55-0.69,1.31-1.26,2.27-1.7c0.96-0.45,2.2-0.67,3.71-0.67c0.46,0,1.75,0.03,2.26,0.1
		c0.58,0.07,1.02,0.55,1.02,1.13v5.42c0,0.69-0.61,1.21-1.3,1.12c-0.49-0.06-1.76-0.09-2.19-0.09c-2.44,0-4.26,0.66-5.46,1.99
		c-1.2,1.32-1.8,3.48-1.8,6.47v10.55c0,0.63-0.51,1.15-1.15,1.15h-5.54C274.76,80.25,274.25,79.74,274.25,79.11z"/>
	<path class="st0" d="M305.68,52.42c1.75,0,3.2,0.28,4.33,0.85c1.13,0.57,2,1.18,2.6,1.83c0.6,0.65,0.97,1.1,1.11,1.34h0.41v-2.36
		c0-0.63,0.51-1.15,1.15-1.15h5.54c0.63,0,1.15,0.51,1.15,1.15v25.03c0,0.63-0.51,1.15-1.15,1.15h-5.54c-0.63,0-1.15-0.51-1.15-1.15
		v-2.36h-0.41c-0.14,0.24-0.51,0.69-1.11,1.34c-0.6,0.65-1.47,1.26-2.6,1.83s-2.58,0.85-4.33,0.85c-2.03,0-3.79-0.4-5.29-1.21
		c-1.49-0.81-2.74-1.89-3.73-3.25c-1-1.36-1.75-2.88-2.24-4.56c-0.5-1.68-0.75-3.4-0.75-5.15c0-1.75,0.25-3.47,0.75-5.16
		c0.5-1.68,1.25-3.2,2.24-4.56c1-1.36,2.24-2.44,3.73-3.25C301.89,52.82,303.65,52.42,305.68,52.42z M307.95,58.76
		c-1.41,0-2.59,0.39-3.53,1.16c-0.95,0.78-1.65,1.76-2.11,2.96c-0.47,1.2-0.7,2.44-0.7,3.71s0.23,2.51,0.7,3.71
		c0.46,1.2,1.17,2.19,2.11,2.96c0.94,0.77,2.12,1.16,3.53,1.16c1.41,0,2.59-0.39,3.53-1.16c0.95-0.77,1.65-1.76,2.11-2.96
		c0.47-1.2,0.7-2.44,0.7-3.71s-0.23-2.51-0.7-3.71c-0.46-1.2-1.17-2.19-2.11-2.96C310.53,59.14,309.36,58.76,307.95,58.76z"/>
	<path class="st0" d="M338.94,80.77c-2.13,0-3.83-0.32-5.1-0.95c-1.27-0.63-2.23-1.44-2.89-2.42c-0.65-0.98-1.08-2.02-1.29-3.12
		c-0.21-1.1-0.31-2.12-0.31-3.04V59.17h-3.49c-0.63,0-1.15-0.51-1.15-1.15v-3.95c0-0.63,0.51-1.15,1.15-1.15h3.49v-5.6
		c0-0.63,0.51-1.15,1.15-1.15h5.54c0.63,0,1.15,0.51,1.15,1.15v5.6h4.68c0.63,0,1.15,0.51,1.15,1.15v3.95
		c0,0.63-0.51,1.15-1.15,1.15h-4.68v11.86c0,1.13,0.3,2.01,0.9,2.63c0.6,0.62,1.61,0.93,3.02,0.93c0.33,0,0.73-0.03,1.18-0.09
		c0.68-0.09,1.29,0.45,1.29,1.14v3.69c0,0.57-0.43,1.06-0.99,1.14C341.17,80.66,339.95,80.77,338.94,80.77z"/>
	<path class="st0" d="M359.41,80.77c-2.41,0-4.49-0.4-6.24-1.21c-1.75-0.81-3.19-1.89-4.33-3.25c-1.13-1.36-1.98-2.88-2.55-4.56
		c-0.57-1.68-0.85-3.42-0.85-5.21c0-1.72,0.27-3.41,0.8-5.08s1.36-3.19,2.47-4.56s2.54-2.46,4.28-3.27c1.74-0.8,3.79-1.21,6.16-1.21
		c2.51,0,4.73,0.55,6.67,1.65c1.94,1.1,3.46,2.72,4.56,4.87c1.1,2.15,1.65,4.75,1.65,7.81v0.76c0,0.63-0.51,1.15-1.15,1.15h-17.56
		c0.1,1.65,0.68,3.08,1.73,4.28c1.05,1.2,2.5,1.8,4.36,1.8c1.06,0,1.93-0.16,2.6-0.49c0.67-0.32,1.19-0.7,1.57-1.13
		c0.26-0.29,0.49-0.65,0.7-1.06c0.19-0.38,0.59-0.61,1.01-0.61h4.95c0.78,0,1.34,0.77,1.09,1.51c-0.22,0.65-0.47,1.25-0.75,1.79
		c-0.48,0.93-1.18,1.86-2.09,2.78c-0.91,0.93-2.11,1.7-3.58,2.32C363.44,80.46,361.6,80.77,359.41,80.77z M353.32,63.91h11.18
		c-0.1-1.89-0.67-3.3-1.7-4.23c-1.03-0.93-2.3-1.39-3.81-1.39c-1.51,0-2.8,0.49-3.87,1.47C354.06,60.74,353.46,62.12,353.32,63.91z"
		/>
</g>
<g>
	<path class="st1" d="M46.01,44.49l-10.92-6.31c-3.44-1.99-7.74,0.5-7.74,4.47V88.5c0,3.97,4.3,6.45,7.74,4.47l10.92-6.31v-0.06
		V44.49z"/>
	<path class="st2" d="M93.46,71.85l-10.94-6.32l-0.03,0.02l0.05,0.03L46.01,86.67v12.58c0,3.97,4.3,6.45,7.74,4.47l39.71-22.93
		C96.9,78.8,96.9,73.83,93.46,71.85z"/>
	<polygon class="st3" points="82.48,65.55 46.01,86.61 46.01,86.67 82.53,65.58 	"/>
	<polygon class="st4" points="82.48,65.55 46.01,86.61 46.01,86.67 82.53,65.58 	"/>
	<path class="st0" d="M93.46,59.22c3.44-1.99,3.44-6.95,0-8.94L53.74,27.35c-3.44-1.99-7.74,0.5-7.74,4.47v12.63l36.51,21.08
		L93.46,59.22z"/>
	<polygon class="st4" points="82.51,65.53 46.01,44.45 46.01,44.49 82.48,65.55 	"/>
	<polygon class="st5" points="82.51,65.53 46.01,44.45 46.01,44.49 82.48,65.55 	"/>
	<polyline class="st6" points="46.01,44.49 46.01,86.61 82.48,65.55 	"/>
</g>
</svg>
